STARTFONT 2.1
FONT --Apple II Full-Regular-R-Normal--8-80-72-72-C-70-RAW-0
SIZE 8 72 72
FONTBOUNDINGBOX 7 8 0 -1
STARTPROPERTIES 21
PIXEL_SIZE 8
RESOLUTION_X 72
RESOLUTION_Y 72
POINT_SIZE 80
FACE_NAME "Apple II Full 7x8"
FONT_VERSION "1"
NOTICE "Apple II text ROM, all 256 codes: 0x00-0x7F normal, 0x80-0xFF inverse video. Bitmaps from robhagemans/hoard-of-bitfonts (yaff/draw sources), converted to BDF with monobit."
FOUNDRY ""
FAMILY_NAME "Apple II Full"
WEIGHT_NAME "Regular"
RELATIVE_WEIGHT 50
SLANT "R"
SPACING "C"
SETWIDTH_NAME "Normal"
RELATIVE_SETWIDTH 50
ADD_STYLE_NAME ""
AVERAGE_WIDTH 70
STRIKEOUT_ASCENT 0
STRIKEOUT_DESCENT 1
CHARSET_REGISTRY "RAW"
CHARSET_ENCODING "0"
ENDPROPERTIES
CHARS 256
STARTCHAR char00
ENCODING 0
SWIDTH 875 0
DWIDTH 7 0
BBX 7 8 0 -1
BITMAP 
38
44
54
5C
58
40
3C
00
ENDCHAR
STARTCHAR char01
ENCODING 1
SWIDTH 875 0
DWIDTH 7 0
BBX 7 8 0 -1
BITMAP 
10
28
44
44
7C
44
44
00
ENDCHAR
STARTCHAR char02
ENCODING 2
SWIDTH 875 0
DWIDTH 7 0
BBX 7 8 0 -1
BITMAP 
78
44
44
78
44
44
78
00
ENDCHAR
STARTCHAR char03
ENCODING 3
SWIDTH 875 0
DWIDTH 7 0
BBX 7 8 0 -1
BITMAP 
38
44
40
40
40
44
38
00
ENDCHAR
STARTCHAR char04
ENCODING 4
SWIDTH 875 0
DWIDTH 7 0
BBX 7 8 0 -1
BITMAP 
78
44
44
44
44
44
78
00
ENDCHAR
STARTCHAR char05
ENCODING 5
SWIDTH 875 0
DWIDTH 7 0
BBX 7 8 0 -1
BITMAP 
7C
40
40
78
40
40
7C
00
ENDCHAR
STARTCHAR char06
ENCODING 6
SWIDTH 875 0
DWIDTH 7 0
BBX 7 8 0 -1
BITMAP 
7C
40
40
78
40
40
40
00
ENDCHAR
STARTCHAR char07
ENCODING 7
SWIDTH 875 0
DWIDTH 7 0
BBX 7 8 0 -1
BITMAP 
3C
40
40
40
4C
44
3C
00
ENDCHAR
STARTCHAR char08
ENCODING 8
SWIDTH 875 0
DWIDTH 7 0
BBX 7 8 0 -1
BITMAP 
44
44
44
7C
44
44
44
00
ENDCHAR
STARTCHAR char09
ENCODING 9
SWIDTH 875 0
DWIDTH 7 0
BBX 7 8 0 -1
BITMAP 
38
10
10
10
10
10
38
00
ENDCHAR
STARTCHAR char0A
ENCODING 10
SWIDTH 875 0
DWIDTH 7 0
BBX 7 8 0 -1
BITMAP 
04
04
04
04
04
44
38
00
ENDCHAR
STARTCHAR char0B
ENCODING 11
SWIDTH 875 0
DWIDTH 7 0
BBX 7 8 0 -1
BITMAP 
44
48
50
60
50
48
44
00
ENDCHAR
STARTCHAR char0C
ENCODING 12
SWIDTH 875 0
DWIDTH 7 0
BBX 7 8 0 -1
BITMAP 
40
40
40
40
40
40
7C
00
ENDCHAR
STARTCHAR char0D
ENCODING 13
SWIDTH 875 0
DWIDTH 7 0
BBX 7 8 0 -1
BITMAP 
44
6C
54
54
44
44
44
00
ENDCHAR
STARTCHAR char0E
ENCODING 14
SWIDTH 875 0
DWIDTH 7 0
BBX 7 8 0 -1
BITMAP 
44
44
64
54
4C
44
44
00
ENDCHAR
STARTCHAR char0F
ENCODING 15
SWIDTH 875 0
DWIDTH 7 0
BBX 7 8 0 -1
BITMAP 
38
44
44
44
44
44
38
00
ENDCHAR
STARTCHAR char10
ENCODING 16
SWIDTH 875 0
DWIDTH 7 0
BBX 7 8 0 -1
BITMAP 
78
44
44
78
40
40
40
00
ENDCHAR
STARTCHAR char11
ENCODING 17
SWIDTH 875 0
DWIDTH 7 0
BBX 7 8 0 -1
BITMAP 
38
44
44
44
54
48
34
00
ENDCHAR
STARTCHAR char12
ENCODING 18
SWIDTH 875 0
DWIDTH 7 0
BBX 7 8 0 -1
BITMAP 
78
44
44
78
50
48
44
00
ENDCHAR
STARTCHAR char13
ENCODING 19
SWIDTH 875 0
DWIDTH 7 0
BBX 7 8 0 -1
BITMAP 
38
44
40
38
04
44
38
00
ENDCHAR
STARTCHAR char14
ENCODING 20
SWIDTH 875 0
DWIDTH 7 0
BBX 7 8 0 -1
BITMAP 
7C
10
10
10
10
10
10
00
ENDCHAR
STARTCHAR char15
ENCODING 21
SWIDTH 875 0
DWIDTH 7 0
BBX 7 8 0 -1
BITMAP 
44
44
44
44
44
44
38
00
ENDCHAR
STARTCHAR char16
ENCODING 22
SWIDTH 875 0
DWIDTH 7 0
BBX 7 8 0 -1
BITMAP 
44
44
44
44
44
28
10
00
ENDCHAR
STARTCHAR char17
ENCODING 23
SWIDTH 875 0
DWIDTH 7 0
BBX 7 8 0 -1
BITMAP 
44
44
44
54
54
6C
44
00
ENDCHAR
STARTCHAR char18
ENCODING 24
SWIDTH 875 0
DWIDTH 7 0
BBX 7 8 0 -1
BITMAP 
44
44
28
10
28
44
44
00
ENDCHAR
STARTCHAR char19
ENCODING 25
SWIDTH 875 0
DWIDTH 7 0
BBX 7 8 0 -1
BITMAP 
44
44
28
10
10
10
10
00
ENDCHAR
STARTCHAR char1A
ENCODING 26
SWIDTH 875 0
DWIDTH 7 0
BBX 7 8 0 -1
BITMAP 
7C
04
08
10
20
40
7C
00
ENDCHAR
STARTCHAR char1B
ENCODING 27
SWIDTH 875 0
DWIDTH 7 0
BBX 7 8 0 -1
BITMAP 
7C
60
60
60
60
60
7C
00
ENDCHAR
STARTCHAR char1C
ENCODING 28
SWIDTH 875 0
DWIDTH 7 0
BBX 7 8 0 -1
BITMAP 
00
40
20
10
08
04
00
00
ENDCHAR
STARTCHAR char1D
ENCODING 29
SWIDTH 875 0
DWIDTH 7 0
BBX 7 8 0 -1
BITMAP 
7C
0C
0C
0C
0C
0C
7C
00
ENDCHAR
STARTCHAR char1E
ENCODING 30
SWIDTH 875 0
DWIDTH 7 0
BBX 7 8 0 -1
BITMAP 
00
00
10
28
44
00
00
00
ENDCHAR
STARTCHAR char1F
ENCODING 31
SWIDTH 875 0
DWIDTH 7 0
BBX 7 8 0 -1
BITMAP 
00
00
00
00
00
00
00
FE
ENDCHAR
STARTCHAR char20
ENCODING 32
SWIDTH 875 0
DWIDTH 7 0
BBX 7 8 0 -1
BITMAP 
00
00
00
00
00
00
00
00
ENDCHAR
STARTCHAR char21
ENCODING 33
SWIDTH 875 0
DWIDTH 7 0
BBX 7 8 0 -1
BITMAP 
10
10
10
10
10
00
10
00
ENDCHAR
STARTCHAR char22
ENCODING 34
SWIDTH 875 0
DWIDTH 7 0
BBX 7 8 0 -1
BITMAP 
28
28
28
00
00
00
00
00
ENDCHAR
STARTCHAR char23
ENCODING 35
SWIDTH 875 0
DWIDTH 7 0
BBX 7 8 0 -1
BITMAP 
28
28
7C
28
7C
28
28
00
ENDCHAR
STARTCHAR char24
ENCODING 36
SWIDTH 875 0
DWIDTH 7 0
BBX 7 8 0 -1
BITMAP 
10
3C
50
38
14
78
10
00
ENDCHAR
STARTCHAR char25
ENCODING 37
SWIDTH 875 0
DWIDTH 7 0
BBX 7 8 0 -1
BITMAP 
60
64
08
10
20
4C
0C
00
ENDCHAR
STARTCHAR char26
ENCODING 38
SWIDTH 875 0
DWIDTH 7 0
BBX 7 8 0 -1
BITMAP 
20
50
50
20
54
48
34
00
ENDCHAR
STARTCHAR char27
ENCODING 39
SWIDTH 875 0
DWIDTH 7 0
BBX 7 8 0 -1
BITMAP 
10
10
10
00
00
00
00
00
ENDCHAR
STARTCHAR char28
ENCODING 40
SWIDTH 875 0
DWIDTH 7 0
BBX 7 8 0 -1
BITMAP 
10
20
40
40
40
20
10
00
ENDCHAR
STARTCHAR char29
ENCODING 41
SWIDTH 875 0
DWIDTH 7 0
BBX 7 8 0 -1
BITMAP 
10
08
04
04
04
08
10
00
ENDCHAR
STARTCHAR char2A
ENCODING 42
SWIDTH 875 0
DWIDTH 7 0
BBX 7 8 0 -1
BITMAP 
10
54
38
10
38
54
10
00
ENDCHAR
STARTCHAR char2B
ENCODING 43
SWIDTH 875 0
DWIDTH 7 0
BBX 7 8 0 -1
BITMAP 
00
10
10
7C
10
10
00
00
ENDCHAR
STARTCHAR char2C
ENCODING 44
SWIDTH 875 0
DWIDTH 7 0
BBX 7 8 0 -1
BITMAP 
00
00
00
00
10
10
20
00
ENDCHAR
STARTCHAR char2D
ENCODING 45
SWIDTH 875 0
DWIDTH 7 0
BBX 7 8 0 -1
BITMAP 
00
00
00
7C
00
00
00
00
ENDCHAR
STARTCHAR char2E
ENCODING 46
SWIDTH 875 0
DWIDTH 7 0
BBX 7 8 0 -1
BITMAP 
00
00
00
00
00
00
10
00
ENDCHAR
STARTCHAR char2F
ENCODING 47
SWIDTH 875 0
DWIDTH 7 0
BBX 7 8 0 -1
BITMAP 
00
04
08
10
20
40
00
00
ENDCHAR
STARTCHAR char30
ENCODING 48
SWIDTH 875 0
DWIDTH 7 0
BBX 7 8 0 -1
BITMAP 
38
44
4C
54
64
44
38
00
ENDCHAR
STARTCHAR char31
ENCODING 49
SWIDTH 875 0
DWIDTH 7 0
BBX 7 8 0 -1
BITMAP 
10
30
10
10
10
10
38
00
ENDCHAR
STARTCHAR char32
ENCODING 50
SWIDTH 875 0
DWIDTH 7 0
BBX 7 8 0 -1
BITMAP 
38
44
04
18
20
40
7C
00
ENDCHAR
STARTCHAR char33
ENCODING 51
SWIDTH 875 0
DWIDTH 7 0
BBX 7 8 0 -1
BITMAP 
7C
04
08
18
04
44
38
00
ENDCHAR
STARTCHAR char34
ENCODING 52
SWIDTH 875 0
DWIDTH 7 0
BBX 7 8 0 -1
BITMAP 
08
18
28
48
7C
08
08
00
ENDCHAR
STARTCHAR char35
ENCODING 53
SWIDTH 875 0
DWIDTH 7 0
BBX 7 8 0 -1
BITMAP 
7C
40
78
04
04
44
38
00
ENDCHAR
STARTCHAR char36
ENCODING 54
SWIDTH 875 0
DWIDTH 7 0
BBX 7 8 0 -1
BITMAP 
1C
20
40
78
44
44
38
00
ENDCHAR
STARTCHAR char37
ENCODING 55
SWIDTH 875 0
DWIDTH 7 0
BBX 7 8 0 -1
BITMAP 
7C
04
08
10
20
20
20
00
ENDCHAR
STARTCHAR char38
ENCODING 56
SWIDTH 875 0
DWIDTH 7 0
BBX 7 8 0 -1
BITMAP 
38
44
44
38
44
44
38
00
ENDCHAR
STARTCHAR char39
ENCODING 57
SWIDTH 875 0
DWIDTH 7 0
BBX 7 8 0 -1
BITMAP 
38
44
44
3C
04
08
70
00
ENDCHAR
STARTCHAR char3A
ENCODING 58
SWIDTH 875 0
DWIDTH 7 0
BBX 7 8 0 -1
BITMAP 
00
00
10
00
10
00
00
00
ENDCHAR
STARTCHAR char3B
ENCODING 59
SWIDTH 875 0
DWIDTH 7 0
BBX 7 8 0 -1
BITMAP 
00
00
10
00
10
10
20
00
ENDCHAR
STARTCHAR char3C
ENCODING 60
SWIDTH 875 0
DWIDTH 7 0
BBX 7 8 0 -1
BITMAP 
08
10
20
40
20
10
08
00
ENDCHAR
STARTCHAR char3D
ENCODING 61
SWIDTH 875 0
DWIDTH 7 0
BBX 7 8 0 -1
BITMAP 
00
00
7C
00
7C
00
00
00
ENDCHAR
STARTCHAR char3E
ENCODING 62
SWIDTH 875 0
DWIDTH 7 0
BBX 7 8 0 -1
BITMAP 
20
10
08
04
08
10
20
00
ENDCHAR
STARTCHAR char3F
ENCODING 63
SWIDTH 875 0
DWIDTH 7 0
BBX 7 8 0 -1
BITMAP 
38
44
08
10
10
00
10
00
ENDCHAR
STARTCHAR char40
ENCODING 64
SWIDTH 875 0
DWIDTH 7 0
BBX 7 8 0 -1
BITMAP 
38
44
54
5C
58
40
3C
00
ENDCHAR
STARTCHAR char41
ENCODING 65
SWIDTH 875 0
DWIDTH 7 0
BBX 7 8 0 -1
BITMAP 
10
28
44
44
7C
44
44
00
ENDCHAR
STARTCHAR char42
ENCODING 66
SWIDTH 875 0
DWIDTH 7 0
BBX 7 8 0 -1
BITMAP 
78
44
44
78
44
44
78
00
ENDCHAR
STARTCHAR char43
ENCODING 67
SWIDTH 875 0
DWIDTH 7 0
BBX 7 8 0 -1
BITMAP 
38
44
40
40
40
44
38
00
ENDCHAR
STARTCHAR char44
ENCODING 68
SWIDTH 875 0
DWIDTH 7 0
BBX 7 8 0 -1
BITMAP 
78
44
44
44
44
44
78
00
ENDCHAR
STARTCHAR char45
ENCODING 69
SWIDTH 875 0
DWIDTH 7 0
BBX 7 8 0 -1
BITMAP 
7C
40
40
78
40
40
7C
00
ENDCHAR
STARTCHAR char46
ENCODING 70
SWIDTH 875 0
DWIDTH 7 0
BBX 7 8 0 -1
BITMAP 
7C
40
40
78
40
40
40
00
ENDCHAR
STARTCHAR char47
ENCODING 71
SWIDTH 875 0
DWIDTH 7 0
BBX 7 8 0 -1
BITMAP 
3C
40
40
40
4C
44
3C
00
ENDCHAR
STARTCHAR char48
ENCODING 72
SWIDTH 875 0
DWIDTH 7 0
BBX 7 8 0 -1
BITMAP 
44
44
44
7C
44
44
44
00
ENDCHAR
STARTCHAR char49
ENCODING 73
SWIDTH 875 0
DWIDTH 7 0
BBX 7 8 0 -1
BITMAP 
38
10
10
10
10
10
38
00
ENDCHAR
STARTCHAR char4A
ENCODING 74
SWIDTH 875 0
DWIDTH 7 0
BBX 7 8 0 -1
BITMAP 
04
04
04
04
04
44
38
00
ENDCHAR
STARTCHAR char4B
ENCODING 75
SWIDTH 875 0
DWIDTH 7 0
BBX 7 8 0 -1
BITMAP 
44
48
50
60
50
48
44
00
ENDCHAR
STARTCHAR char4C
ENCODING 76
SWIDTH 875 0
DWIDTH 7 0
BBX 7 8 0 -1
BITMAP 
40
40
40
40
40
40
7C
00
ENDCHAR
STARTCHAR char4D
ENCODING 77
SWIDTH 875 0
DWIDTH 7 0
BBX 7 8 0 -1
BITMAP 
44
6C
54
54
44
44
44
00
ENDCHAR
STARTCHAR char4E
ENCODING 78
SWIDTH 875 0
DWIDTH 7 0
BBX 7 8 0 -1
BITMAP 
44
44
64
54
4C
44
44
00
ENDCHAR
STARTCHAR char4F
ENCODING 79
SWIDTH 875 0
DWIDTH 7 0
BBX 7 8 0 -1
BITMAP 
38
44
44
44
44
44
38
00
ENDCHAR
STARTCHAR char50
ENCODING 80
SWIDTH 875 0
DWIDTH 7 0
BBX 7 8 0 -1
BITMAP 
78
44
44
78
40
40
40
00
ENDCHAR
STARTCHAR char51
ENCODING 81
SWIDTH 875 0
DWIDTH 7 0
BBX 7 8 0 -1
BITMAP 
38
44
44
44
54
48
34
00
ENDCHAR
STARTCHAR char52
ENCODING 82
SWIDTH 875 0
DWIDTH 7 0
BBX 7 8 0 -1
BITMAP 
78
44
44
78
50
48
44
00
ENDCHAR
STARTCHAR char53
ENCODING 83
SWIDTH 875 0
DWIDTH 7 0
BBX 7 8 0 -1
BITMAP 
38
44
40
38
04
44
38
00
ENDCHAR
STARTCHAR char54
ENCODING 84
SWIDTH 875 0
DWIDTH 7 0
BBX 7 8 0 -1
BITMAP 
7C
10
10
10
10
10
10
00
ENDCHAR
STARTCHAR char55
ENCODING 85
SWIDTH 875 0
DWIDTH 7 0
BBX 7 8 0 -1
BITMAP 
44
44
44
44
44
44
38
00
ENDCHAR
STARTCHAR char56
ENCODING 86
SWIDTH 875 0
DWIDTH 7 0
BBX 7 8 0 -1
BITMAP 
44
44
44
44
44
28
10
00
ENDCHAR
STARTCHAR char57
ENCODING 87
SWIDTH 875 0
DWIDTH 7 0
BBX 7 8 0 -1
BITMAP 
44
44
44
54
54
6C
44
00
ENDCHAR
STARTCHAR char58
ENCODING 88
SWIDTH 875 0
DWIDTH 7 0
BBX 7 8 0 -1
BITMAP 
44
44
28
10
28
44
44
00
ENDCHAR
STARTCHAR char59
ENCODING 89
SWIDTH 875 0
DWIDTH 7 0
BBX 7 8 0 -1
BITMAP 
44
44
28
10
10
10
10
00
ENDCHAR
STARTCHAR char5A
ENCODING 90
SWIDTH 875 0
DWIDTH 7 0
BBX 7 8 0 -1
BITMAP 
7C
04
08
10
20
40
7C
00
ENDCHAR
STARTCHAR char5B
ENCODING 91
SWIDTH 875 0
DWIDTH 7 0
BBX 7 8 0 -1
BITMAP 
7C
60
60
60
60
60
7C
00
ENDCHAR
STARTCHAR char5C
ENCODING 92
SWIDTH 875 0
DWIDTH 7 0
BBX 7 8 0 -1
BITMAP 
00
40
20
10
08
04
00
00
ENDCHAR
STARTCHAR char5D
ENCODING 93
SWIDTH 875 0
DWIDTH 7 0
BBX 7 8 0 -1
BITMAP 
7C
0C
0C
0C
0C
0C
7C
00
ENDCHAR
STARTCHAR char5E
ENCODING 94
SWIDTH 875 0
DWIDTH 7 0
BBX 7 8 0 -1
BITMAP 
00
00
10
28
44
00
00
00
ENDCHAR
STARTCHAR char5F
ENCODING 95
SWIDTH 875 0
DWIDTH 7 0
BBX 7 8 0 -1
BITMAP 
00
00
00
00
00
00
00
FE
ENDCHAR
STARTCHAR char60
ENCODING 96
SWIDTH 875 0
DWIDTH 7 0
BBX 7 8 0 -1
BITMAP 
20
10
08
00
00
00
00
00
ENDCHAR
STARTCHAR char61
ENCODING 97
SWIDTH 875 0
DWIDTH 7 0
BBX 7 8 0 -1
BITMAP 
00
00
38
04
3C
44
3C
00
ENDCHAR
STARTCHAR char62
ENCODING 98
SWIDTH 875 0
DWIDTH 7 0
BBX 7 8 0 -1
BITMAP 
40
40
78
44
44
44
78
00
ENDCHAR
STARTCHAR char63
ENCODING 99
SWIDTH 875 0
DWIDTH 7 0
BBX 7 8 0 -1
BITMAP 
00
00
3C
40
40
40
3C
00
ENDCHAR
STARTCHAR char64
ENCODING 100
SWIDTH 875 0
DWIDTH 7 0
BBX 7 8 0 -1
BITMAP 
04
04
3C
44
44
44
3C
00
ENDCHAR
STARTCHAR char65
ENCODING 101
SWIDTH 875 0
DWIDTH 7 0
BBX 7 8 0 -1
BITMAP 
00
00
38
44
7C
40
3C
00
ENDCHAR
STARTCHAR char66
ENCODING 102
SWIDTH 875 0
DWIDTH 7 0
BBX 7 8 0 -1
BITMAP 
18
24
20
78
20
20
20
00
ENDCHAR
STARTCHAR char67
ENCODING 103
SWIDTH 875 0
DWIDTH 7 0
BBX 7 8 0 -1
BITMAP 
00
00
38
44
44
3C
04
38
ENDCHAR
STARTCHAR char68
ENCODING 104
SWIDTH 875 0
DWIDTH 7 0
BBX 7 8 0 -1
BITMAP 
40
40
78
44
44
44
44
00
ENDCHAR
STARTCHAR char69
ENCODING 105
SWIDTH 875 0
DWIDTH 7 0
BBX 7 8 0 -1
BITMAP 
10
00
30
10
10
10
38
00
ENDCHAR
STARTCHAR char6A
ENCODING 106
SWIDTH 875 0
DWIDTH 7 0
BBX 7 8 0 -1
BITMAP 
08
00
18
08
08
08
48
30
ENDCHAR
STARTCHAR char6B
ENCODING 107
SWIDTH 875 0
DWIDTH 7 0
BBX 7 8 0 -1
BITMAP 
40
40
44
48
70
48
44
00
ENDCHAR
STARTCHAR char6C
ENCODING 108
SWIDTH 875 0
DWIDTH 7 0
BBX 7 8 0 -1
BITMAP 
30
10
10
10
10
10
38
00
ENDCHAR
STARTCHAR char6D
ENCODING 109
SWIDTH 875 0
DWIDTH 7 0
BBX 7 8 0 -1
BITMAP 
00
00
6C
54
54
54
44
00
ENDCHAR
STARTCHAR char6E
ENCODING 110
SWIDTH 875 0
DWIDTH 7 0
BBX 7 8 0 -1
BITMAP 
00
00
78
44
44
44
44
00
ENDCHAR
STARTCHAR char6F
ENCODING 111
SWIDTH 875 0
DWIDTH 7 0
BBX 7 8 0 -1
BITMAP 
00
00
38
44
44
44
38
00
ENDCHAR
STARTCHAR char70
ENCODING 112
SWIDTH 875 0
DWIDTH 7 0
BBX 7 8 0 -1
BITMAP 
00
00
78
44
44
78
40
40
ENDCHAR
STARTCHAR char71
ENCODING 113
SWIDTH 875 0
DWIDTH 7 0
BBX 7 8 0 -1
BITMAP 
00
00
3C
44
44
3C
04
04
ENDCHAR
STARTCHAR char72
ENCODING 114
SWIDTH 875 0
DWIDTH 7 0
BBX 7 8 0 -1
BITMAP 
00
00
5C
60
40
40
40
00
ENDCHAR
STARTCHAR char73
ENCODING 115
SWIDTH 875 0
DWIDTH 7 0
BBX 7 8 0 -1
BITMAP 
00
00
3C
40
38
04
78
00
ENDCHAR
STARTCHAR char74
ENCODING 116
SWIDTH 875 0
DWIDTH 7 0
BBX 7 8 0 -1
BITMAP 
20
20
78
20
20
24
18
00
ENDCHAR
STARTCHAR char75
ENCODING 117
SWIDTH 875 0
DWIDTH 7 0
BBX 7 8 0 -1
BITMAP 
00
00
44
44
44
4C
34
00
ENDCHAR
STARTCHAR char76
ENCODING 118
SWIDTH 875 0
DWIDTH 7 0
BBX 7 8 0 -1
BITMAP 
00
00
44
44
44
28
10
00
ENDCHAR
STARTCHAR char77
ENCODING 119
SWIDTH 875 0
DWIDTH 7 0
BBX 7 8 0 -1
BITMAP 
00
00
44
44
54
54
6C
00
ENDCHAR
STARTCHAR char78
ENCODING 120
SWIDTH 875 0
DWIDTH 7 0
BBX 7 8 0 -1
BITMAP 
00
00
44
28
10
28
44
00
ENDCHAR
STARTCHAR char79
ENCODING 121
SWIDTH 875 0
DWIDTH 7 0
BBX 7 8 0 -1
BITMAP 
00
00
44
44
44
3C
04
38
ENDCHAR
STARTCHAR char7A
ENCODING 122
SWIDTH 875 0
DWIDTH 7 0
BBX 7 8 0 -1
BITMAP 
00
00
7C
08
10
20
7C
00
ENDCHAR
STARTCHAR char7B
ENCODING 123
SWIDTH 875 0
DWIDTH 7 0
BBX 7 8 0 -1
BITMAP 
1C
30
30
60
30
30
1C
00
ENDCHAR
STARTCHAR char7C
ENCODING 124
SWIDTH 875 0
DWIDTH 7 0
BBX 7 8 0 -1
BITMAP 
10
10
10
10
10
10
10
10
ENDCHAR
STARTCHAR char7D
ENCODING 125
SWIDTH 875 0
DWIDTH 7 0
BBX 7 8 0 -1
BITMAP 
70
18
18
0C
18
18
70
00
ENDCHAR
STARTCHAR char7E
ENCODING 126
SWIDTH 875 0
DWIDTH 7 0
BBX 7 8 0 -1
BITMAP 
34
58
00
00
00
00
00
00
ENDCHAR
STARTCHAR char7F
ENCODING 127
SWIDTH 875 0
DWIDTH 7 0
BBX 7 8 0 -1
BITMAP 
00
54
28
54
28
54
00
00
ENDCHAR
STARTCHAR char80
ENCODING 128
SWIDTH 875 0
DWIDTH 7 0
BBX 7 8 0 -1
BITMAP 
C6
BA
AA
A2
A6
BE
C2
FE
ENDCHAR
STARTCHAR char81
ENCODING 129
SWIDTH 875 0
DWIDTH 7 0
BBX 7 8 0 -1
BITMAP 
EE
D6
BA
BA
82
BA
BA
FE
ENDCHAR
STARTCHAR char82
ENCODING 130
SWIDTH 875 0
DWIDTH 7 0
BBX 7 8 0 -1
BITMAP 
86
BA
BA
86
BA
BA
86
FE
ENDCHAR
STARTCHAR char83
ENCODING 131
SWIDTH 875 0
DWIDTH 7 0
BBX 7 8 0 -1
BITMAP 
C6
BA
BE
BE
BE
BA
C6
FE
ENDCHAR
STARTCHAR char84
ENCODING 132
SWIDTH 875 0
DWIDTH 7 0
BBX 7 8 0 -1
BITMAP 
86
BA
BA
BA
BA
BA
86
FE
ENDCHAR
STARTCHAR char85
ENCODING 133
SWIDTH 875 0
DWIDTH 7 0
BBX 7 8 0 -1
BITMAP 
82
BE
BE
86
BE
BE
82
FE
ENDCHAR
STARTCHAR char86
ENCODING 134
SWIDTH 875 0
DWIDTH 7 0
BBX 7 8 0 -1
BITMAP 
82
BE
BE
86
BE
BE
BE
FE
ENDCHAR
STARTCHAR char87
ENCODING 135
SWIDTH 875 0
DWIDTH 7 0
BBX 7 8 0 -1
BITMAP 
C2
BE
BE
BE
B2
BA
C2
FE
ENDCHAR
STARTCHAR char88
ENCODING 136
SWIDTH 875 0
DWIDTH 7 0
BBX 7 8 0 -1
BITMAP 
BA
BA
BA
82
BA
BA
BA
FE
ENDCHAR
STARTCHAR char89
ENCODING 137
SWIDTH 875 0
DWIDTH 7 0
BBX 7 8 0 -1
BITMAP 
C6
EE
EE
EE
EE
EE
C6
FE
ENDCHAR
STARTCHAR char8A
ENCODING 138
SWIDTH 875 0
DWIDTH 7 0
BBX 7 8 0 -1
BITMAP 
FA
FA
FA
FA
FA
BA
C6
FE
ENDCHAR
STARTCHAR char8B
ENCODING 139
SWIDTH 875 0
DWIDTH 7 0
BBX 7 8 0 -1
BITMAP 
BA
B6
AE
9E
AE
B6
BA
FE
ENDCHAR
STARTCHAR char8C
ENCODING 140
SWIDTH 875 0
DWIDTH 7 0
BBX 7 8 0 -1
BITMAP 
BE
BE
BE
BE
BE
BE
82
FE
ENDCHAR
STARTCHAR char8D
ENCODING 141
SWIDTH 875 0
DWIDTH 7 0
BBX 7 8 0 -1
BITMAP 
BA
92
AA
AA
BA
BA
BA
FE
ENDCHAR
STARTCHAR char8E
ENCODING 142
SWIDTH 875 0
DWIDTH 7 0
BBX 7 8 0 -1
BITMAP 
BA
BA
9A
AA
B2
BA
BA
FE
ENDCHAR
STARTCHAR char8F
ENCODING 143
SWIDTH 875 0
DWIDTH 7 0
BBX 7 8 0 -1
BITMAP 
C6
BA
BA
BA
BA
BA
C6
FE
ENDCHAR
STARTCHAR char90
ENCODING 144
SWIDTH 875 0
DWIDTH 7 0
BBX 7 8 0 -1
BITMAP 
86
BA
BA
86
BE
BE
BE
FE
ENDCHAR
STARTCHAR char91
ENCODING 145
SWIDTH 875 0
DWIDTH 7 0
BBX 7 8 0 -1
BITMAP 
C6
BA
BA
BA
AA
B6
CA
FE
ENDCHAR
STARTCHAR char92
ENCODING 146
SWIDTH 875 0
DWIDTH 7 0
BBX 7 8 0 -1
BITMAP 
86
BA
BA
86
AE
B6
BA
FE
ENDCHAR
STARTCHAR char93
ENCODING 147
SWIDTH 875 0
DWIDTH 7 0
BBX 7 8 0 -1
BITMAP 
C6
BA
BE
C6
FA
BA
C6
FE
ENDCHAR
STARTCHAR char94
ENCODING 148
SWIDTH 875 0
DWIDTH 7 0
BBX 7 8 0 -1
BITMAP 
82
EE
EE
EE
EE
EE
EE
FE
ENDCHAR
STARTCHAR char95
ENCODING 149
SWIDTH 875 0
DWIDTH 7 0
BBX 7 8 0 -1
BITMAP 
BA
BA
BA
BA
BA
BA
C6
FE
ENDCHAR
STARTCHAR char96
ENCODING 150
SWIDTH 875 0
DWIDTH 7 0
BBX 7 8 0 -1
BITMAP 
BA
BA
BA
BA
BA
D6
EE
FE
ENDCHAR
STARTCHAR char97
ENCODING 151
SWIDTH 875 0
DWIDTH 7 0
BBX 7 8 0 -1
BITMAP 
BA
BA
BA
AA
AA
92
BA
FE
ENDCHAR
STARTCHAR char98
ENCODING 152
SWIDTH 875 0
DWIDTH 7 0
BBX 7 8 0 -1
BITMAP 
BA
BA
D6
EE
D6
BA
BA
FE
ENDCHAR
STARTCHAR char99
ENCODING 153
SWIDTH 875 0
DWIDTH 7 0
BBX 7 8 0 -1
BITMAP 
BA
BA
D6
EE
EE
EE
EE
FE
ENDCHAR
STARTCHAR char9A
ENCODING 154
SWIDTH 875 0
DWIDTH 7 0
BBX 7 8 0 -1
BITMAP 
82
FA
F6
EE
DE
BE
82
FE
ENDCHAR
STARTCHAR char9B
ENCODING 155
SWIDTH 875 0
DWIDTH 7 0
BBX 7 8 0 -1
BITMAP 
82
9E
9E
9E
9E
9E
82
FE
ENDCHAR
STARTCHAR char9C
ENCODING 156
SWIDTH 875 0
DWIDTH 7 0
BBX 7 8 0 -1
BITMAP 
FE
BE
DE
EE
F6
FA
FE
FE
ENDCHAR
STARTCHAR char9D
ENCODING 157
SWIDTH 875 0
DWIDTH 7 0
BBX 7 8 0 -1
BITMAP 
82
F2
F2
F2
F2
F2
82
FE
ENDCHAR
STARTCHAR char9E
ENCODING 158
SWIDTH 875 0
DWIDTH 7 0
BBX 7 8 0 -1
BITMAP 
FE
FE
EE
D6
BA
FE
FE
FE
ENDCHAR
STARTCHAR char9F
ENCODING 159
SWIDTH 875 0
DWIDTH 7 0
BBX 7 8 0 -1
BITMAP 
FE
FE
FE
FE
FE
FE
FE
00
ENDCHAR
STARTCHAR charA0
ENCODING 160
SWIDTH 875 0
DWIDTH 7 0
BBX 7 8 0 -1
BITMAP 
FE
FE
FE
FE
FE
FE
FE
FE
ENDCHAR
STARTCHAR charA1
ENCODING 161
SWIDTH 875 0
DWIDTH 7 0
BBX 7 8 0 -1
BITMAP 
EE
EE
EE
EE
EE
FE
EE
FE
ENDCHAR
STARTCHAR charA2
ENCODING 162
SWIDTH 875 0
DWIDTH 7 0
BBX 7 8 0 -1
BITMAP 
D6
D6
D6
FE
FE
FE
FE
FE
ENDCHAR
STARTCHAR charA3
ENCODING 163
SWIDTH 875 0
DWIDTH 7 0
BBX 7 8 0 -1
BITMAP 
D6
D6
82
D6
82
D6
D6
FE
ENDCHAR
STARTCHAR charA4
ENCODING 164
SWIDTH 875 0
DWIDTH 7 0
BBX 7 8 0 -1
BITMAP 
EE
C2
AE
C6
EA
86
EE
FE
ENDCHAR
STARTCHAR charA5
ENCODING 165
SWIDTH 875 0
DWIDTH 7 0
BBX 7 8 0 -1
BITMAP 
9E
9A
F6
EE
DE
B2
F2
FE
ENDCHAR
STARTCHAR charA6
ENCODING 166
SWIDTH 875 0
DWIDTH 7 0
BBX 7 8 0 -1
BITMAP 
DE
AE
AE
DE
AA
B6
CA
FE
ENDCHAR
STARTCHAR charA7
ENCODING 167
SWIDTH 875 0
DWIDTH 7 0
BBX 7 8 0 -1
BITMAP 
EE
EE
EE
FE
FE
FE
FE
FE
ENDCHAR
STARTCHAR charA8
ENCODING 168
SWIDTH 875 0
DWIDTH 7 0
BBX 7 8 0 -1
BITMAP 
EE
DE
BE
BE
BE
DE
EE
FE
ENDCHAR
STARTCHAR charA9
ENCODING 169
SWIDTH 875 0
DWIDTH 7 0
BBX 7 8 0 -1
BITMAP 
EE
F6
FA
FA
FA
F6
EE
FE
ENDCHAR
STARTCHAR charAA
ENCODING 170
SWIDTH 875 0
DWIDTH 7 0
BBX 7 8 0 -1
BITMAP 
EE
AA
C6
EE
C6
AA
EE
FE
ENDCHAR
STARTCHAR charAB
ENCODING 171
SWIDTH 875 0
DWIDTH 7 0
BBX 7 8 0 -1
BITMAP 
FE
EE
EE
82
EE
EE
FE
FE
ENDCHAR
STARTCHAR charAC
ENCODING 172
SWIDTH 875 0
DWIDTH 7 0
BBX 7 8 0 -1
BITMAP 
FE
FE
FE
FE
EE
EE
DE
FE
ENDCHAR
STARTCHAR charAD
ENCODING 173
SWIDTH 875 0
DWIDTH 7 0
BBX 7 8 0 -1
BITMAP 
FE
FE
FE
82
FE
FE
FE
FE
ENDCHAR
STARTCHAR charAE
ENCODING 174
SWIDTH 875 0
DWIDTH 7 0
BBX 7 8 0 -1
BITMAP 
FE
FE
FE
FE
FE
FE
EE
FE
ENDCHAR
STARTCHAR charAF
ENCODING 175
SWIDTH 875 0
DWIDTH 7 0
BBX 7 8 0 -1
BITMAP 
FE
FA
F6
EE
DE
BE
FE
FE
ENDCHAR
STARTCHAR charB0
ENCODING 176
SWIDTH 875 0
DWIDTH 7 0
BBX 7 8 0 -1
BITMAP 
C6
BA
B2
AA
9A
BA
C6
FE
ENDCHAR
STARTCHAR charB1
ENCODING 177
SWIDTH 875 0
DWIDTH 7 0
BBX 7 8 0 -1
BITMAP 
EE
CE
EE
EE
EE
EE
C6
FE
ENDCHAR
STARTCHAR charB2
ENCODING 178
SWIDTH 875 0
DWIDTH 7 0
BBX 7 8 0 -1
BITMAP 
C6
BA
FA
E6
DE
BE
82
FE
ENDCHAR
STARTCHAR charB3
ENCODING 179
SWIDTH 875 0
DWIDTH 7 0
BBX 7 8 0 -1
BITMAP 
82
FA
F6
E6
FA
BA
C6
FE
ENDCHAR
STARTCHAR charB4
ENCODING 180
SWIDTH 875 0
DWIDTH 7 0
BBX 7 8 0 -1
BITMAP 
F6
E6
D6
B6
82
F6
F6
FE
ENDCHAR
STARTCHAR charB5
ENCODING 181
SWIDTH 875 0
DWIDTH 7 0
BBX 7 8 0 -1
BITMAP 
82
BE
86
FA
FA
BA
C6
FE
ENDCHAR
STARTCHAR charB6
ENCODING 182
SWIDTH 875 0
DWIDTH 7 0
BBX 7 8 0 -1
BITMAP 
E2
DE
BE
86
BA
BA
C6
FE
ENDCHAR
STARTCHAR charB7
ENCODING 183
SWIDTH 875 0
DWIDTH 7 0
BBX 7 8 0 -1
BITMAP 
82
FA
F6
EE
DE
DE
DE
FE
ENDCHAR
STARTCHAR charB8
ENCODING 184
SWIDTH 875 0
DWIDTH 7 0
BBX 7 8 0 -1
BITMAP 
C6
BA
BA
C6
BA
BA
C6
FE
ENDCHAR
STARTCHAR charB9
ENCODING 185
SWIDTH 875 0
DWIDTH 7 0
BBX 7 8 0 -1
BITMAP 
C6
BA
BA
C2
FA
F6
8E
FE
ENDCHAR
STARTCHAR charBA
ENCODING 186
SWIDTH 875 0
DWIDTH 7 0
BBX 7 8 0 -1
BITMAP 
FE
FE
EE
FE
EE
FE
FE
FE
ENDCHAR
STARTCHAR charBB
ENCODING 187
SWIDTH 875 0
DWIDTH 7 0
BBX 7 8 0 -1
BITMAP 
FE
FE
EE
FE
EE
EE
DE
FE
ENDCHAR
STARTCHAR charBC
ENCODING 188
SWIDTH 875 0
DWIDTH 7 0
BBX 7 8 0 -1
BITMAP 
F6
EE
DE
BE
DE
EE
F6
FE
ENDCHAR
STARTCHAR charBD
ENCODING 189
SWIDTH 875 0
DWIDTH 7 0
BBX 7 8 0 -1
BITMAP 
FE
FE
82
FE
82
FE
FE
FE
ENDCHAR
STARTCHAR charBE
ENCODING 190
SWIDTH 875 0
DWIDTH 7 0
BBX 7 8 0 -1
BITMAP 
DE
EE
F6
FA
F6
EE
DE
FE
ENDCHAR
STARTCHAR charBF
ENCODING 191
SWIDTH 875 0
DWIDTH 7 0
BBX 7 8 0 -1
BITMAP 
C6
BA
F6
EE
EE
FE
EE
FE
ENDCHAR
STARTCHAR charC0
ENCODING 192
SWIDTH 875 0
DWIDTH 7 0
BBX 7 8 0 -1
BITMAP 
C6
BA
AA
A2
A6
BE
C2
FE
ENDCHAR
STARTCHAR charC1
ENCODING 193
SWIDTH 875 0
DWIDTH 7 0
BBX 7 8 0 -1
BITMAP 
EE
D6
BA
BA
82
BA
BA
FE
ENDCHAR
STARTCHAR charC2
ENCODING 194
SWIDTH 875 0
DWIDTH 7 0
BBX 7 8 0 -1
BITMAP 
86
BA
BA
86
BA
BA
86
FE
ENDCHAR
STARTCHAR charC3
ENCODING 195
SWIDTH 875 0
DWIDTH 7 0
BBX 7 8 0 -1
BITMAP 
C6
BA
BE
BE
BE
BA
C6
FE
ENDCHAR
STARTCHAR charC4
ENCODING 196
SWIDTH 875 0
DWIDTH 7 0
BBX 7 8 0 -1
BITMAP 
86
BA
BA
BA
BA
BA
86
FE
ENDCHAR
STARTCHAR charC5
ENCODING 197
SWIDTH 875 0
DWIDTH 7 0
BBX 7 8 0 -1
BITMAP 
82
BE
BE
86
BE
BE
82
FE
ENDCHAR
STARTCHAR charC6
ENCODING 198
SWIDTH 875 0
DWIDTH 7 0
BBX 7 8 0 -1
BITMAP 
82
BE
BE
86
BE
BE
BE
FE
ENDCHAR
STARTCHAR charC7
ENCODING 199
SWIDTH 875 0
DWIDTH 7 0
BBX 7 8 0 -1
BITMAP 
C2
BE
BE
BE
B2
BA
C2
FE
ENDCHAR
STARTCHAR charC8
ENCODING 200
SWIDTH 875 0
DWIDTH 7 0
BBX 7 8 0 -1
BITMAP 
BA
BA
BA
82
BA
BA
BA
FE
ENDCHAR
STARTCHAR charC9
ENCODING 201
SWIDTH 875 0
DWIDTH 7 0
BBX 7 8 0 -1
BITMAP 
C6
EE
EE
EE
EE
EE
C6
FE
ENDCHAR
STARTCHAR charCA
ENCODING 202
SWIDTH 875 0
DWIDTH 7 0
BBX 7 8 0 -1
BITMAP 
FA
FA
FA
FA
FA
BA
C6
FE
ENDCHAR
STARTCHAR charCB
ENCODING 203
SWIDTH 875 0
DWIDTH 7 0
BBX 7 8 0 -1
BITMAP 
BA
B6
AE
9E
AE
B6
BA
FE
ENDCHAR
STARTCHAR charCC
ENCODING 204
SWIDTH 875 0
DWIDTH 7 0
BBX 7 8 0 -1
BITMAP 
BE
BE
BE
BE
BE
BE
82
FE
ENDCHAR
STARTCHAR charCD
ENCODING 205
SWIDTH 875 0
DWIDTH 7 0
BBX 7 8 0 -1
BITMAP 
BA
92
AA
AA
BA
BA
BA
FE
ENDCHAR
STARTCHAR charCE
ENCODING 206
SWIDTH 875 0
DWIDTH 7 0
BBX 7 8 0 -1
BITMAP 
BA
BA
9A
AA
B2
BA
BA
FE
ENDCHAR
STARTCHAR charCF
ENCODING 207
SWIDTH 875 0
DWIDTH 7 0
BBX 7 8 0 -1
BITMAP 
C6
BA
BA
BA
BA
BA
C6
FE
ENDCHAR
STARTCHAR charD0
ENCODING 208
SWIDTH 875 0
DWIDTH 7 0
BBX 7 8 0 -1
BITMAP 
86
BA
BA
86
BE
BE
BE
FE
ENDCHAR
STARTCHAR charD1
ENCODING 209
SWIDTH 875 0
DWIDTH 7 0
BBX 7 8 0 -1
BITMAP 
C6
BA
BA
BA
AA
B6
CA
FE
ENDCHAR
STARTCHAR charD2
ENCODING 210
SWIDTH 875 0
DWIDTH 7 0
BBX 7 8 0 -1
BITMAP 
86
BA
BA
86
AE
B6
BA
FE
ENDCHAR
STARTCHAR charD3
ENCODING 211
SWIDTH 875 0
DWIDTH 7 0
BBX 7 8 0 -1
BITMAP 
C6
BA
BE
C6
FA
BA
C6
FE
ENDCHAR
STARTCHAR charD4
ENCODING 212
SWIDTH 875 0
DWIDTH 7 0
BBX 7 8 0 -1
BITMAP 
82
EE
EE
EE
EE
EE
EE
FE
ENDCHAR
STARTCHAR charD5
ENCODING 213
SWIDTH 875 0
DWIDTH 7 0
BBX 7 8 0 -1
BITMAP 
BA
BA
BA
BA
BA
BA
C6
FE
ENDCHAR
STARTCHAR charD6
ENCODING 214
SWIDTH 875 0
DWIDTH 7 0
BBX 7 8 0 -1
BITMAP 
BA
BA
BA
BA
BA
D6
EE
FE
ENDCHAR
STARTCHAR charD7
ENCODING 215
SWIDTH 875 0
DWIDTH 7 0
BBX 7 8 0 -1
BITMAP 
BA
BA
BA
AA
AA
92
BA
FE
ENDCHAR
STARTCHAR charD8
ENCODING 216
SWIDTH 875 0
DWIDTH 7 0
BBX 7 8 0 -1
BITMAP 
BA
BA
D6
EE
D6
BA
BA
FE
ENDCHAR
STARTCHAR charD9
ENCODING 217
SWIDTH 875 0
DWIDTH 7 0
BBX 7 8 0 -1
BITMAP 
BA
BA
D6
EE
EE
EE
EE
FE
ENDCHAR
STARTCHAR charDA
ENCODING 218
SWIDTH 875 0
DWIDTH 7 0
BBX 7 8 0 -1
BITMAP 
82
FA
F6
EE
DE
BE
82
FE
ENDCHAR
STARTCHAR charDB
ENCODING 219
SWIDTH 875 0
DWIDTH 7 0
BBX 7 8 0 -1
BITMAP 
82
9E
9E
9E
9E
9E
82
FE
ENDCHAR
STARTCHAR charDC
ENCODING 220
SWIDTH 875 0
DWIDTH 7 0
BBX 7 8 0 -1
BITMAP 
FE
BE
DE
EE
F6
FA
FE
FE
ENDCHAR
STARTCHAR charDD
ENCODING 221
SWIDTH 875 0
DWIDTH 7 0
BBX 7 8 0 -1
BITMAP 
82
F2
F2
F2
F2
F2
82
FE
ENDCHAR
STARTCHAR charDE
ENCODING 222
SWIDTH 875 0
DWIDTH 7 0
BBX 7 8 0 -1
BITMAP 
FE
FE
EE
D6
BA
FE
FE
FE
ENDCHAR
STARTCHAR charDF
ENCODING 223
SWIDTH 875 0
DWIDTH 7 0
BBX 7 8 0 -1
BITMAP 
FE
FE
FE
FE
FE
FE
FE
00
ENDCHAR
STARTCHAR charE0
ENCODING 224
SWIDTH 875 0
DWIDTH 7 0
BBX 7 8 0 -1
BITMAP 
DE
EE
F6
FE
FE
FE
FE
FE
ENDCHAR
STARTCHAR charE1
ENCODING 225
SWIDTH 875 0
DWIDTH 7 0
BBX 7 8 0 -1
BITMAP 
FE
FE
C6
FA
C2
BA
C2
FE
ENDCHAR
STARTCHAR charE2
ENCODING 226
SWIDTH 875 0
DWIDTH 7 0
BBX 7 8 0 -1
BITMAP 
BE
BE
86
BA
BA
BA
86
FE
ENDCHAR
STARTCHAR charE3
ENCODING 227
SWIDTH 875 0
DWIDTH 7 0
BBX 7 8 0 -1
BITMAP 
FE
FE
C2
BE
BE
BE
C2
FE
ENDCHAR
STARTCHAR charE4
ENCODING 228
SWIDTH 875 0
DWIDTH 7 0
BBX 7 8 0 -1
BITMAP 
FA
FA
C2
BA
BA
BA
C2
FE
ENDCHAR
STARTCHAR charE5
ENCODING 229
SWIDTH 875 0
DWIDTH 7 0
BBX 7 8 0 -1
BITMAP 
FE
FE
C6
BA
82
BE
C2
FE
ENDCHAR
STARTCHAR charE6
ENCODING 230
SWIDTH 875 0
DWIDTH 7 0
BBX 7 8 0 -1
BITMAP 
E6
DA
DE
86
DE
DE
DE
FE
ENDCHAR
STARTCHAR charE7
ENCODING 231
SWIDTH 875 0
DWIDTH 7 0
BBX 7 8 0 -1
BITMAP 
FE
FE
C6
BA
BA
C2
FA
C6
ENDCHAR
STARTCHAR charE8
ENCODING 232
SWIDTH 875 0
DWIDTH 7 0
BBX 7 8 0 -1
BITMAP 
BE
BE
86
BA
BA
BA
BA
FE
ENDCHAR
STARTCHAR charE9
ENCODING 233
SWIDTH 875 0
DWIDTH 7 0
BBX 7 8 0 -1
BITMAP 
EE
FE
CE
EE
EE
EE
C6
FE
ENDCHAR
STARTCHAR charEA
ENCODING 234
SWIDTH 875 0
DWIDTH 7 0
BBX 7 8 0 -1
BITMAP 
F6
FE
E6
F6
F6
F6
B6
CE
ENDCHAR
STARTCHAR charEB
ENCODING 235
SWIDTH 875 0
DWIDTH 7 0
BBX 7 8 0 -1
BITMAP 
BE
BE
BA
B6
8E
B6
BA
FE
ENDCHAR
STARTCHAR charEC
ENCODING 236
SWIDTH 875 0
DWIDTH 7 0
BBX 7 8 0 -1
BITMAP 
CE
EE
EE
EE
EE
EE
C6
FE
ENDCHAR
STARTCHAR charED
ENCODING 237
SWIDTH 875 0
DWIDTH 7 0
BBX 7 8 0 -1
BITMAP 
FE
FE
92
AA
AA
AA
BA
FE
ENDCHAR
STARTCHAR charEE
ENCODING 238
SWIDTH 875 0
DWIDTH 7 0
BBX 7 8 0 -1
BITMAP 
FE
FE
86
BA
BA
BA
BA
FE
ENDCHAR
STARTCHAR charEF
ENCODING 239
SWIDTH 875 0
DWIDTH 7 0
BBX 7 8 0 -1
BITMAP 
FE
FE
C6
BA
BA
BA
C6
FE
ENDCHAR
STARTCHAR charF0
ENCODING 240
SWIDTH 875 0
DWIDTH 7 0
BBX 7 8 0 -1
BITMAP 
FE
FE
86
BA
BA
86
BE
BE
ENDCHAR
STARTCHAR charF1
ENCODING 241
SWIDTH 875 0
DWIDTH 7 0
BBX 7 8 0 -1
BITMAP 
FE
FE
C2
BA
BA
C2
FA
FA
ENDCHAR
STARTCHAR charF2
ENCODING 242
SWIDTH 875 0
DWIDTH 7 0
BBX 7 8 0 -1
BITMAP 
FE
FE
A2
9E
BE
BE
BE
FE
ENDCHAR
STARTCHAR charF3
ENCODING 243
SWIDTH 875 0
DWIDTH 7 0
BBX 7 8 0 -1
BITMAP 
FE
FE
C2
BE
C6
FA
86
FE
ENDCHAR
STARTCHAR charF4
ENCODING 244
SWIDTH 875 0
DWIDTH 7 0
BBX 7 8 0 -1
BITMAP 
DE
DE
86
DE
DE
DA
E6
FE
ENDCHAR
STARTCHAR charF5
ENCODING 245
SWIDTH 875 0
DWIDTH 7 0
BBX 7 8 0 -1
BITMAP 
FE
FE
BA
BA
BA
B2
CA
FE
ENDCHAR
STARTCHAR charF6
ENCODING 246
SWIDTH 875 0
DWIDTH 7 0
BBX 7 8 0 -1
BITMAP 
FE
FE
BA
BA
BA
D6
EE
FE
ENDCHAR
STARTCHAR charF7
ENCODING 247
SWIDTH 875 0
DWIDTH 7 0
BBX 7 8 0 -1
BITMAP 
FE
FE
BA
BA
AA
AA
92
FE
ENDCHAR
STARTCHAR charF8
ENCODING 248
SWIDTH 875 0
DWIDTH 7 0
BBX 7 8 0 -1
BITMAP 
FE
FE
BA
D6
EE
D6
BA
FE
ENDCHAR
STARTCHAR charF9
ENCODING 249
SWIDTH 875 0
DWIDTH 7 0
BBX 7 8 0 -1
BITMAP 
FE
FE
BA
BA
BA
C2
FA
C6
ENDCHAR
STARTCHAR charFA
ENCODING 250
SWIDTH 875 0
DWIDTH 7 0
BBX 7 8 0 -1
BITMAP 
FE
FE
82
F6
EE
DE
82
FE
ENDCHAR
STARTCHAR charFB
ENCODING 251
SWIDTH 875 0
DWIDTH 7 0
BBX 7 8 0 -1
BITMAP 
E2
CE
CE
9E
CE
CE
E2
FE
ENDCHAR
STARTCHAR charFC
ENCODING 252
SWIDTH 875 0
DWIDTH 7 0
BBX 7 8 0 -1
BITMAP 
EE
EE
EE
EE
EE
EE
EE
EE
ENDCHAR
STARTCHAR charFD
ENCODING 253
SWIDTH 875 0
DWIDTH 7 0
BBX 7 8 0 -1
BITMAP 
8E
E6
E6
F2
E6
E6
8E
FE
ENDCHAR
STARTCHAR charFE
ENCODING 254
SWIDTH 875 0
DWIDTH 7 0
BBX 7 8 0 -1
BITMAP 
CA
A6
FE
FE
FE
FE
FE
FE
ENDCHAR
STARTCHAR charFF
ENCODING 255
SWIDTH 875 0
DWIDTH 7 0
BBX 7 8 0 -1
BITMAP 
FE
AA
D6
AA
D6
AA
FE
FE
ENDCHAR
ENDFONT
